<svg width="20" height="16" viewBox="0 0 20 16" fill="none" xmlns="http://www.w3.org/2000/svg">
<g clip-path="url(#clip0_180_5657)">
<path d="M15.7143 5.81818C15.7143 6.87121 15.3646 7.8447 14.6652 8.73864C13.9658 9.63258 13.0115 10.339 11.8025 10.858C10.5934 11.3769 9.27827 11.6364 7.85714 11.6364C7.21726 11.6364 6.5625 11.5758 5.89286 11.4545C4.97024 12.1212 3.93601 12.6061 2.79018 12.9091C2.52232 12.9773 2.20238 13.0379 1.83036 13.0909H1.79688C1.71503 13.0909 1.63876 13.0606 1.56808 13C1.4974 12.9394 1.45461 12.8598 1.43973 12.7614C1.43229 12.7386 1.42857 12.714 1.42857 12.6875C1.42857 12.661 1.43043 12.6364 1.43415 12.6136C1.43787 12.5909 1.44531 12.5682 1.45647 12.5455L1.48438 12.4886L1.52344 12.4261L1.56808 12.3693L1.6183 12.3125L1.66295 12.2614C1.70015 12.2159 1.78571 12.1212 1.91964 11.9773C2.05357 11.8333 2.1503 11.7216 2.20982 11.642C2.26935 11.5625 2.35305 11.4527 2.46094 11.3125C2.56882 11.1723 2.66183 11.0265 2.73996 10.875C2.81808 10.7235 2.89435 10.5568 2.96875 10.375C2.04613 9.82955 1.32068 9.15909 0.792411 8.36364C0.264137 7.56818 0 6.7197 0 5.81818C0 4.76515 0.349702 3.79167 1.04911 2.89773C1.74851 2.00379 2.70275 1.29735 3.91183 0.778409C5.12091 0.25947 6.43601 0 7.85714 0C9.27827 0 10.5934 0.25947 11.8025 0.778409C13.0115 1.29735 13.9658 2.00379 14.6652 2.89773C15.3646 3.79167 15.7143 4.76515 15.7143 5.81818ZM20 8.72727C20 9.63636 19.7359 10.4867 19.2076 11.2784C18.6793 12.0701 17.9539 12.7386 17.0313 13.2841C17.1057 13.4659 17.1819 13.6326 17.26 13.7841C17.3382 13.9356 17.4312 14.0814 17.5391 14.2216C17.6469 14.3617 17.7307 14.4716 17.7902 14.5511C17.8497 14.6307 17.9464 14.7424 18.0804 14.8864C18.2143 15.0303 18.2999 15.125 18.3371 15.1705C18.3445 15.178 18.3594 15.1951 18.3817 15.2216C18.404 15.2481 18.4208 15.267 18.4319 15.2784C18.4431 15.2898 18.458 15.3087 18.4766 15.3352C18.4952 15.3617 18.5082 15.3826 18.5156 15.3977L18.5435 15.4545L18.5658 15.5227L18.5714 15.5966L18.5603 15.6705C18.5379 15.7765 18.4896 15.8598 18.4152 15.9205C18.3408 15.9811 18.2589 16.0076 18.1696 16C17.7976 15.947 17.4777 15.8864 17.2098 15.8182C16.064 15.5152 15.0298 15.0303 14.1071 14.3636C13.4375 14.4848 12.7827 14.5455 12.1429 14.5455C10.1265 14.5455 8.37054 14.0455 6.875 13.0455C7.30655 13.0758 7.63393 13.0909 7.85714 13.0909C9.05506 13.0909 10.2046 12.9205 11.3058 12.5795C12.407 12.2386 13.3891 11.75 14.2522 11.1136C15.1823 10.4167 15.8966 9.61364 16.3951 8.70455C16.8936 7.79545 17.1429 6.83333 17.1429 5.81818C17.1429 5.23485 17.0573 4.65909 16.8862 4.09091C17.846 4.62879 18.6049 5.30303 19.1629 6.11364C19.721 6.92424 20 7.79545 20 8.72727Z" fill="#6D300E"/>
</g>
<defs>
<clipPath id="clip0_180_5657">
<rect width="20" height="16" fill="white"/>
</clipPath>
</defs>
</svg>
