<svg width="24" height="24" viewBox="0 0 24 24" fill="none" xmlns="http://www.w3.org/2000/svg">
<g id="Icons">
<path id="Vector" d="M11.9999 2.9999C12.1988 2.9999 12.3896 3.07892 12.5303 3.21957C12.6709 3.36022 12.7499 3.55099 12.7499 3.7499L12.7499 18.4396L18.2193 12.9693C18.289 12.8996 18.3717 12.8443 18.4628 12.8066C18.5538 12.7689 18.6514 12.7495 18.7499 12.7495C18.8485 12.7495 18.9461 12.7689 19.0371 12.8066C19.1281 12.8443 19.2109 12.8996 19.2806 12.9693C19.3502 13.039 19.4055 13.1217 19.4432 13.2127C19.4809 13.3038 19.5003 13.4014 19.5003 13.4999C19.5003 13.5984 19.4809 13.696 19.4432 13.7871C19.4055 13.8781 19.3502 13.9608 19.2806 14.0305L12.5306 20.7805C12.4609 20.8503 12.3782 20.9056 12.2871 20.9433C12.1961 20.9811 12.0985 21.0005 11.9999 21.0005C11.9014 21.0005 11.8038 20.9811 11.7127 20.9433C11.6217 20.9056 11.539 20.8503 11.4693 20.7805L4.7193 14.0305C4.57857 13.8898 4.49951 13.6989 4.49951 13.4999C4.49951 13.3009 4.57857 13.11 4.7193 12.9693C4.86003 12.8285 5.05091 12.7495 5.24993 12.7495C5.44895 12.7495 5.63982 12.8285 5.78055 12.9693L11.2499 18.4396V3.7499C11.2499 3.55099 11.3289 3.36022 11.4696 3.21957C11.6103 3.07892 11.801 2.9999 11.9999 2.9999Z" fill="white" fill-opacity="0.25"/>
</g>
</svg>
