<svg width="16" height="16" viewBox="0 0 16 16" fill="none" xmlns="http://www.w3.org/2000/svg">
<path d="M15 13.125H13.875V7.22187C13.8748 7.10064 13.8496 6.98076 13.8009 6.86976C13.7522 6.75875 13.681 6.65903 13.5919 6.57687L8.59188 1.85874L8.58625 1.85374C8.4256 1.70661 8.21566 1.625 7.99781 1.625C7.77997 1.625 7.57003 1.70661 7.40938 1.85374L7.40375 1.85874L2.40375 6.57749C2.31531 6.65983 2.24489 6.75959 2.19691 6.87049C2.14894 6.9814 2.12445 7.10103 2.125 7.22187V13.125H1C0.900544 13.125 0.805161 13.1645 0.734835 13.2348C0.664509 13.3052 0.625 13.4005 0.625 13.5C0.625 13.5994 0.664509 13.6948 0.734835 13.7652C0.805161 13.8355 0.900544 13.875 1 13.875H15C15.0995 13.875 15.1948 13.8355 15.2652 13.7652C15.3355 13.6948 15.375 13.5994 15.375 13.5C15.375 13.4005 15.3355 13.3052 15.2652 13.2348C15.1948 13.1645 15.0995 13.125 15 13.125ZM2.875 7.22187C2.87496 7.20447 2.87856 7.18726 2.88555 7.17133C2.89255 7.1554 2.90279 7.14111 2.91563 7.12937L2.92125 7.12437L7.9175 2.40687C7.94027 2.387 7.96947 2.37605 7.99969 2.37605C8.02991 2.37605 8.0591 2.387 8.08187 2.40687L13.0787 7.12499L13.0837 7.12999C13.0967 7.14168 13.1071 7.15595 13.1142 7.17188C13.1213 7.18781 13.125 7.20505 13.125 7.22249V13.125H9.875V9.99999C9.875 9.76793 9.78281 9.54537 9.61872 9.38127C9.45462 9.21718 9.23206 9.12499 9 9.12499H7C6.76794 9.12499 6.54538 9.21718 6.38128 9.38127C6.21719 9.54537 6.125 9.76793 6.125 9.99999V13.125H2.875V7.22187ZM9.125 13.125H6.875V9.99999C6.875 9.96684 6.88817 9.93504 6.91161 9.9116C6.93505 9.88816 6.96685 9.87499 7 9.87499H9C9.03315 9.87499 9.06495 9.88816 9.08839 9.9116C9.11183 9.93504 9.125 9.96684 9.125 9.99999V13.125Z" fill="#FCFCFC"/>
</svg>
