<svg width="419" height="419" viewBox="0 0 419 419" fill="none" xmlns="http://www.w3.org/2000/svg">
<path d="M123.756 241.042H72.7634V218.022L123.756 157.401H148.158V219.329H160.804V241.042H148.158V259.88H123.756V241.042ZM123.756 219.329V187.619L96.8056 219.329H123.756Z" fill="#4FE24C"/>
<path d="M169.527 209.089C169.527 189.932 172.974 176.524 179.868 168.865C186.762 161.206 197.267 157.379 211.385 157.384C218.162 157.384 223.729 158.222 228.086 159.898C232.045 161.325 235.67 163.546 238.737 166.426C241.323 168.895 243.513 171.747 245.232 174.882C246.932 178.155 248.213 181.629 249.045 185.223C250.939 192.9 251.885 200.78 251.86 208.687C251.86 226.966 248.768 240.344 242.584 248.819C236.399 257.294 225.748 261.534 210.631 261.539C202.15 261.539 195.298 260.187 190.075 257.484C184.809 254.736 180.374 250.63 177.228 245.592C174.798 241.883 172.907 236.807 171.555 230.366C170.151 223.362 169.472 216.232 169.527 209.089V209.089ZM197.298 209.156C197.298 222.005 198.429 230.768 200.692 235.444C202.955 240.12 206.242 242.469 210.555 242.492C211.924 242.507 213.282 242.25 214.551 241.737C215.82 241.223 216.974 240.463 217.946 239.5C220.036 237.506 221.572 234.355 222.555 230.047C223.539 225.74 224.03 219.036 224.03 209.935C224.03 196.561 222.896 187.569 220.628 182.96C218.36 178.351 214.958 176.049 210.421 176.055C205.795 176.055 202.443 178.404 200.365 183.103C198.287 187.801 197.265 196.485 197.298 209.156Z" fill="#4FE24C"/>
<path d="M311.518 241.042H260.525V218.022L311.518 157.401H335.92V219.329H348.608V241.042H335.92V259.88H311.518V241.042ZM311.518 219.329V187.619L284.576 219.329H311.518Z" fill="#4FE24C"/>
<g opacity="0.3">
<path d="M168.439 122.031C168.439 122.341 168.347 122.645 168.174 122.903C168.002 123.16 167.756 123.361 167.469 123.48C167.183 123.598 166.867 123.629 166.563 123.567C166.259 123.506 165.98 123.356 165.761 123.136C165.542 122.916 165.393 122.636 165.334 122.332C165.274 122.027 165.306 121.712 165.426 121.426C165.546 121.139 165.748 120.895 166.007 120.724C166.266 120.553 166.57 120.462 166.88 120.464C167.086 120.464 167.289 120.505 167.479 120.583C167.668 120.662 167.84 120.778 167.985 120.923C168.13 121.069 168.245 121.242 168.323 121.432C168.4 121.622 168.44 121.826 168.439 122.031V122.031Z" fill="#4FE24C"/>
<path d="M61.1494 182.223C61.7603 182.223 62.2555 181.728 62.2555 181.117C62.2555 180.506 61.7603 180.011 61.1494 180.011C60.5385 180.011 60.0432 180.506 60.0432 181.117C60.0432 181.728 60.5385 182.223 61.1494 182.223Z" fill="#4FE24C"/>
<path d="M243.9 343.767C244.775 343.767 245.484 343.058 245.484 342.183C245.484 341.308 244.775 340.599 243.9 340.599C243.025 340.599 242.316 341.308 242.316 342.183C242.316 343.058 243.025 343.767 243.9 343.767Z" fill="#4FE24C"/>
<path d="M281.988 279.323C282.599 279.323 283.094 278.828 283.094 278.217C283.094 277.606 282.599 277.111 281.988 277.111C281.377 277.111 280.882 277.606 280.882 278.217C280.882 278.828 281.377 279.323 281.988 279.323Z" fill="#4FE24C"/>
<path d="M355.455 80.1317C355.455 80.3505 355.39 80.5643 355.269 80.7462C355.147 80.9281 354.974 81.0699 354.772 81.1536C354.57 81.2374 354.348 81.2593 354.133 81.2166C353.918 81.1739 353.721 81.0685 353.567 80.9138C353.412 80.7591 353.307 80.562 353.264 80.3475C353.221 80.1329 353.243 79.9105 353.327 79.7084C353.411 79.5062 353.552 79.3335 353.734 79.2119C353.916 79.0904 354.13 79.0255 354.349 79.0255C354.642 79.0255 354.924 79.1421 355.131 79.3495C355.338 79.5569 355.455 79.8383 355.455 80.1317V80.1317Z" fill="#4FE24C"/>
<path d="M144.765 57.8232C144.765 58.042 144.7 58.2558 144.579 58.4378C144.457 58.6197 144.284 58.7614 144.082 58.8452C143.88 58.9289 143.658 58.9508 143.443 58.9081C143.229 58.8654 143.031 58.7601 142.877 58.6054C142.722 58.4507 142.617 58.2536 142.574 58.039C142.531 57.8244 142.553 57.602 142.637 57.3999C142.721 57.1978 142.862 57.025 143.044 56.9035C143.226 56.7819 143.44 56.717 143.659 56.717C143.952 56.7192 144.232 56.8365 144.439 57.0435C144.646 57.2504 144.763 57.5305 144.765 57.8232V57.8232Z" fill="#4FE24C"/>
<path d="M232.714 115.864C233.325 115.864 233.82 115.369 233.82 114.758C233.82 114.147 233.325 113.652 232.714 113.652C232.103 113.652 231.607 114.147 231.607 114.758C231.607 115.369 232.103 115.864 232.714 115.864Z" fill="#4FE24C"/>
</g>
<path d="M118.351 115.87C128.491 115.87 136.712 107.65 136.712 97.5098C136.712 87.3695 128.491 79.1492 118.351 79.1492C108.211 79.1492 99.9905 87.3695 99.9905 97.5098C99.9905 107.65 108.211 115.87 118.351 115.87Z" fill="#4FE24C"/>
<path opacity="0.7" d="M118.351 115.87C128.491 115.87 136.712 107.65 136.712 97.5098C136.712 87.3695 128.491 79.1492 118.351 79.1492C108.211 79.1492 99.9905 87.3695 99.9905 97.5098C99.9905 107.65 108.211 115.87 118.351 115.87Z" fill="white"/>
<path opacity="0.2" d="M112.025 83.6568C109.524 83.6492 107.049 84.154 104.751 85.1401C101.927 88.2439 100.25 92.2212 100.001 96.4101C99.7516 100.599 100.944 104.747 103.38 108.164C105.815 111.581 109.348 114.061 113.389 115.192C117.43 116.322 121.737 116.035 125.592 114.378V114.378C127.982 111.744 129.556 108.472 130.123 104.961C130.689 101.449 130.224 97.8487 128.784 94.5964C127.344 91.344 124.99 88.5798 122.009 86.6394C119.028 84.6989 115.548 83.6657 111.991 83.6652L112.025 83.6568Z" fill="#4FE24C"/>
<path opacity="0.2" d="M110.197 88.5112C110.197 88.8427 110.099 89.1667 109.915 89.4423C109.731 89.718 109.469 89.9328 109.163 90.0596C108.856 90.1865 108.519 90.2197 108.194 90.155C107.869 90.0903 107.57 89.9307 107.336 89.6963C107.102 89.4619 106.942 89.1633 106.877 88.8382C106.813 88.5131 106.846 88.1761 106.973 87.8698C107.1 87.5636 107.314 87.3018 107.59 87.1177C107.866 86.9335 108.19 86.8352 108.521 86.8352C108.966 86.8352 109.392 87.0118 109.706 87.3261C110.021 87.6404 110.197 88.0667 110.197 88.5112Z" fill="#4FE24C"/>
<path opacity="0.2" d="M129.941 86.8352C129.941 87.1667 129.843 87.4907 129.658 87.7663C129.474 88.0419 129.212 88.2567 128.906 88.3836C128.6 88.5105 128.263 88.5436 127.938 88.479C127.613 88.4143 127.314 88.2547 127.08 88.0203C126.845 87.7859 126.686 87.4873 126.621 87.1621C126.556 86.837 126.59 86.5 126.716 86.1938C126.843 85.8875 127.058 85.6258 127.334 85.4416C127.609 85.2575 127.933 85.1592 128.265 85.1592C128.709 85.1592 129.136 85.3358 129.45 85.6501C129.764 85.9644 129.941 86.3907 129.941 86.8352Z" fill="#4FE24C"/>
<path opacity="0.2" d="M126.588 98.8019C126.588 99.3455 126.427 99.8769 126.125 100.329C125.823 100.781 125.394 101.133 124.892 101.341C124.389 101.549 123.837 101.604 123.303 101.498C122.77 101.392 122.281 101.13 121.896 100.745C121.512 100.361 121.25 99.8713 121.144 99.3381C121.038 98.8049 121.092 98.2522 121.3 97.75C121.508 97.2478 121.861 96.8185 122.313 96.5165C122.765 96.2144 123.296 96.0532 123.84 96.0532C124.569 96.0532 125.268 96.3428 125.783 96.8583C126.299 97.3737 126.588 98.0729 126.588 98.8019V98.8019Z" fill="#4FE24C"/>
<path opacity="0.2" d="M117.857 106.637C117.857 107.363 117.642 108.073 117.239 108.676C116.835 109.28 116.262 109.75 115.591 110.028C114.921 110.306 114.183 110.379 113.471 110.237C112.759 110.095 112.105 109.746 111.591 109.233C111.078 108.719 110.729 108.065 110.587 107.353C110.445 106.641 110.518 105.903 110.796 105.232C111.074 104.562 111.544 103.989 112.148 103.585C112.751 103.182 113.461 102.967 114.187 102.967C115.16 102.967 116.094 103.353 116.782 104.042C117.471 104.73 117.857 105.664 117.857 106.637V106.637Z" fill="#4FE24C"/>
<path d="M335.954 318.982C337.999 310.32 332.634 301.641 323.972 299.597C315.31 297.552 306.631 302.917 304.586 311.579C302.542 320.241 307.907 328.92 316.569 330.964C325.231 333.009 333.91 327.644 335.954 318.982Z" fill="#4FE24C"/>
<path opacity="0.3" d="M335.954 318.982C337.999 310.32 332.634 301.641 323.972 299.597C315.31 297.552 306.631 302.917 304.586 311.579C302.542 320.241 307.907 328.92 316.569 330.964C325.231 333.009 333.91 327.644 335.954 318.982Z" fill="white"/>
<path opacity="0.4" d="M330.449 302.803C326.876 301.725 323.041 301.921 319.597 303.357C316.152 304.793 313.314 307.38 311.566 310.676C309.817 313.973 309.268 317.774 310.011 321.431C310.755 325.088 312.745 328.373 315.641 330.725C317.144 331.182 318.705 331.413 320.275 331.412C323.602 331.412 326.847 330.381 329.565 328.463C332.283 326.544 334.341 323.831 335.455 320.697C336.57 317.562 336.687 314.16 335.791 310.956C334.894 307.752 333.028 304.904 330.449 302.803V302.803Z" fill="#4FE24C"/>
<path d="M304.89 320.115C287.686 328.21 300.516 334.453 324.759 325.738C347.209 317.668 355.765 307.495 335.653 310.654C336.734 314.886 308.619 325.839 304.89 320.115Z" fill="#4FE24C"/>
<path opacity="0.2" d="M330.256 157.398C307.722 172.625 278.551 192.737 270.498 241.039H268.78C276.615 193.273 304.722 172.683 327.264 157.398H330.256Z" fill="black"/>
<path d="M213.689 308.609C199.443 308.609 185.357 302.182 178.493 291.69C174.262 285.204 169.343 271.62 183.991 253.494L185.29 254.55C174.932 267.371 173.021 280.234 179.901 290.776C188.281 303.598 208.05 310.051 224.927 305.458C242.215 300.757 252.707 285.723 253.721 264.212C257.182 190.627 296.274 167.959 324.817 151.409C342.557 141.126 355.37 133.702 352.554 118.023C352.161 115.852 351.297 114.352 349.898 113.431C346.253 111.026 339.13 112.693 330.884 114.612C314.702 118.383 292.545 123.545 279.347 101.095L280.797 100.257C293.367 121.651 313.956 116.85 330.507 112.995C339.13 110.992 346.571 109.257 350.82 112.048C352.622 113.229 353.728 115.098 354.172 117.746C357.197 134.573 343.278 142.652 325.638 152.875C297.422 169.233 258.791 191.633 255.372 264.329C254.316 286.62 243.371 302.215 225.338 307.117C221.538 308.129 217.621 308.631 213.689 308.609Z" fill="#4FE24C"/>
<path opacity="0.2" d="M213.689 308.609C199.443 308.609 185.357 302.182 178.493 291.69C174.262 285.204 169.343 271.62 183.991 253.494L185.29 254.55C174.932 267.371 173.021 280.234 179.901 290.776C188.281 303.598 208.05 310.051 224.927 305.458C242.215 300.757 252.707 285.723 253.721 264.212C257.182 190.627 296.274 167.959 324.817 151.409C342.557 141.126 355.37 133.702 352.554 118.023C352.161 115.852 351.297 114.352 349.898 113.431C346.253 111.026 339.13 112.693 330.884 114.612C314.702 118.383 292.545 123.545 279.347 101.095L280.797 100.257C293.367 121.651 313.956 116.85 330.507 112.995C339.13 110.992 346.571 109.257 350.82 112.048C352.622 113.229 353.728 115.098 354.172 117.746C357.197 134.573 343.278 142.652 325.638 152.875C297.422 169.233 258.791 191.633 255.372 264.329C254.316 286.62 243.371 302.215 225.338 307.117C221.538 308.129 217.621 308.631 213.689 308.609Z" fill="white"/>
<path d="M262.092 81.2843C265.954 81.3066 269.79 81.9083 273.472 83.0692C273.472 83.0692 282.69 98.7985 283.78 102.402C283.394 105.955 277.403 111.779 277.403 111.779L262.092 81.2843Z" fill="#4FE24C"/>
<path opacity="0.3" d="M262.092 81.2843C265.954 81.3066 269.79 81.9083 273.472 83.0692C273.472 83.0692 282.69 98.7985 283.78 102.402C283.394 105.955 277.403 111.779 277.403 111.779L262.092 81.2843Z" fill="white"/>
<path d="M289.395 157.651C285.845 153.311 282.608 148.724 279.707 143.925C279.003 142.713 278.336 141.478 277.705 140.221C277.344 139.509 277.001 138.796 276.665 138.076C276.226 137.374 275.884 136.616 275.651 135.821C274.646 125.204 278.283 117.385 274.813 108.863L261.003 114.26C261.003 114.26 262.176 129.444 264.858 138.562C266.534 144.201 270.288 149.079 273.917 153.595C275.048 155.003 276.137 156.453 277.269 157.869C278.4 159.285 279.54 160.434 280.621 161.766C282.255 163.786 282.791 165.721 281.559 168.101L281.35 168.478C280.998 169.098 282.64 169.802 283.679 168.478C285.355 166.316 285.121 166.45 286.579 164.607C287.467 163.492 288.481 162.277 289.361 161.255C289.786 160.752 290.021 160.117 290.027 159.459C290.033 158.801 289.81 158.162 289.395 157.651V157.651Z" fill="#4FE24C"/>
<path opacity="0.7" d="M289.395 157.651C285.845 153.311 282.608 148.724 279.707 143.925C279.003 142.713 278.336 141.478 277.705 140.221C277.344 139.509 277.001 138.796 276.665 138.076C276.226 137.374 275.884 136.616 275.651 135.821C274.646 125.204 278.283 117.385 274.813 108.863L261.003 114.26C261.003 114.26 262.176 129.444 264.858 138.562C266.534 144.201 270.288 149.079 273.917 153.595C275.048 155.003 276.137 156.453 277.269 157.869C278.4 159.285 279.54 160.434 280.621 161.766C282.255 163.786 282.791 165.721 281.559 168.101L281.35 168.478C280.998 169.098 282.64 169.802 283.679 168.478C285.355 166.316 285.121 166.45 286.579 164.607C287.467 163.492 288.481 162.277 289.361 161.255C289.786 160.752 290.021 160.117 290.027 159.459C290.033 158.801 289.81 158.162 289.395 157.651V157.651Z" fill="white"/>
<path opacity="0.3" d="M286.017 153.284C283.825 155.633 281.393 157.745 278.76 159.585C279.12 159.988 279.472 160.423 279.832 160.809C282.469 159.028 284.863 156.912 286.955 154.515L286.017 153.284Z" fill="#4FE24C"/>
<path opacity="0.3" d="M289.394 157.65L289.294 157.532C288.649 158.272 288.274 159.209 288.229 160.189C288.176 160.861 288.285 161.537 288.548 162.158L289.344 161.211C289.76 160.714 289.992 160.088 290.001 159.439C290.011 158.791 289.796 158.159 289.394 157.65V157.65Z" fill="#4FE24C"/>
<path d="M258.807 91.3388C257.31 93.5805 255.514 95.6076 253.469 97.364C252.335 98.3414 251.092 99.185 249.765 99.878C249.068 100.235 248.346 100.541 247.603 100.791L247.034 100.976L246.849 101.026L246.455 101.135C246.213 101.193 245.966 101.232 245.718 101.252C245.011 101.306 244.3 101.241 243.614 101.06C242.75 100.814 241.922 100.456 241.151 99.9953C240.53 99.6326 239.929 99.2383 239.349 98.8138C238.301 98.0344 237.3 97.195 236.349 96.2998C234.516 94.563 232.834 92.6734 231.321 90.6516C231.03 90.2578 230.885 89.7745 230.912 89.2854C230.939 88.7962 231.136 88.3318 231.468 87.9722C231.801 87.6126 232.249 87.3805 232.735 87.3158C233.22 87.2512 233.713 87.3581 234.128 87.6181H234.195C236.173 88.8751 238.167 90.1991 240.112 91.3807C241.1 91.9589 242.056 92.5455 243.003 92.998C243.435 93.2244 243.88 93.4258 244.335 93.6014C244.619 93.7266 244.922 93.8004 245.232 93.8193C245.282 93.8193 245.232 93.7606 244.922 93.769C244.824 93.7632 244.726 93.7632 244.628 93.769L244.444 93.8109L244.721 93.6684C245.093 93.4681 245.454 93.2471 245.802 93.0064C246.551 92.4777 247.253 91.8832 247.897 91.2299C249.361 89.6956 250.732 88.0754 252.003 86.3778C252.699 85.5987 253.662 85.1079 254.701 85.0018C255.741 84.8956 256.782 85.1818 257.622 85.804C258.461 86.4263 259.038 87.3398 259.239 88.3653C259.44 89.3908 259.25 90.4543 258.707 91.3472L258.807 91.3388Z" fill="#4FE24C"/>
<path opacity="0.7" d="M258.807 91.3388C257.31 93.5805 255.514 95.6076 253.469 97.364C252.335 98.3414 251.092 99.185 249.765 99.878C249.068 100.235 248.346 100.541 247.603 100.791L247.034 100.976L246.849 101.026L246.455 101.135C246.213 101.193 245.966 101.232 245.718 101.252C245.011 101.306 244.3 101.241 243.614 101.06C242.75 100.814 241.922 100.456 241.151 99.9953C240.53 99.6326 239.929 99.2383 239.349 98.8138C238.301 98.0344 237.3 97.195 236.349 96.2998C234.516 94.563 232.834 92.6734 231.321 90.6516C231.03 90.2578 230.885 89.7745 230.912 89.2854C230.939 88.7962 231.136 88.3318 231.468 87.9722C231.801 87.6126 232.249 87.3805 232.735 87.3158C233.22 87.2512 233.713 87.3581 234.128 87.6181H234.195C236.173 88.8751 238.167 90.1991 240.112 91.3807C241.1 91.9589 242.056 92.5455 243.003 92.998C243.435 93.2244 243.88 93.4258 244.335 93.6014C244.619 93.7266 244.922 93.8004 245.232 93.8193C245.282 93.8193 245.232 93.7606 244.922 93.769C244.824 93.7632 244.726 93.7632 244.628 93.769L244.444 93.8109L244.721 93.6684C245.093 93.4681 245.454 93.2471 245.802 93.0064C246.551 92.4777 247.253 91.8832 247.897 91.2299C249.361 89.6956 250.732 88.0754 252.003 86.3778C252.699 85.5987 253.662 85.1079 254.701 85.0018C255.741 84.8956 256.782 85.1818 257.622 85.804C258.461 86.4263 259.038 87.3398 259.239 88.3653C259.44 89.3908 259.25 90.4543 258.707 91.3472L258.807 91.3388Z" fill="white"/>
<path d="M228.178 85.8251L229.159 87.5011C229.159 87.5011 229.904 89.6967 231.404 90.0989L235.477 88.7833L235.268 88.4397C234.748 87.652 234.807 86.1184 234.983 84.8447C235.159 83.5709 234.505 83.529 234.019 83.8474C233.675 84.2436 233.433 84.7185 233.315 85.2301C233.115 84.9534 232.894 84.6928 232.653 84.4508L231.413 83.2106C231.153 82.9562 230.806 82.8097 230.442 82.8004C230.079 82.7911 229.725 82.9196 229.452 83.1603L228.446 84.0569C228.208 84.2776 228.051 84.5728 228.003 84.8941C227.954 85.2154 228.016 85.5437 228.178 85.8251V85.8251Z" fill="#4FE24C"/>
<path opacity="0.7" d="M228.178 85.8251L229.159 87.5011C229.159 87.5011 229.904 89.6967 231.404 90.0989L235.477 88.7833L235.268 88.4397C234.748 87.652 234.807 86.1184 234.983 84.8447C235.159 83.5709 234.505 83.529 234.019 83.8474C233.675 84.2436 233.433 84.7185 233.315 85.2301C233.115 84.9534 232.894 84.6928 232.653 84.4508L231.413 83.2106C231.153 82.9562 230.806 82.8097 230.442 82.8004C230.079 82.7911 229.725 82.9196 229.452 83.1603L228.446 84.0569C228.208 84.2776 228.051 84.5728 228.003 84.8941C227.954 85.2154 228.016 85.5437 228.178 85.8251V85.8251Z" fill="white"/>
<path d="M266.207 79.793C261.69 80.9904 257.363 82.8155 253.352 85.2149C252.726 85.6065 252.235 86.1799 251.945 86.8584C251.654 87.5369 251.578 88.288 251.726 89.011C253.344 96.9218 257.023 107.514 260.995 114.26L279.523 106.592C279.649 103.324 275.149 92.7485 270.565 82.5249C269.743 80.6897 268.16 79.3238 266.207 79.793Z" fill="#4FE24C"/>
<path opacity="0.8" d="M266.207 79.793C261.69 80.9904 257.363 82.8155 253.352 85.2149C252.726 85.6065 252.235 86.1799 251.945 86.8584C251.654 87.5369 251.578 88.288 251.726 89.011C253.344 96.9218 257.023 107.514 260.995 114.26L279.523 106.592C279.649 103.324 275.149 92.7485 270.565 82.5249C269.743 80.6897 268.16 79.3238 266.207 79.793Z" fill="white"/>
<path opacity="0.3" d="M273.439 89.0009L269.76 87.769C270.598 89.9227 273.556 92.6462 275.626 94.2468C274.956 92.5708 274.21 90.811 273.439 89.0009Z" fill="#4FE24C"/>
<path d="M264.992 71.496C263.458 68.5798 260.148 67.1133 256.176 67.4401C252.824 67.725 249.858 71.144 250.21 72.9876C250.562 74.8312 253.377 75.619 253.914 76.2558L251.592 77.9318C251.317 78.1303 251.085 78.3824 250.91 78.6729C250.735 78.9633 250.621 79.2862 250.574 79.6221C250.527 79.9579 250.548 80.2998 250.637 80.6272C250.726 80.9545 250.88 81.2605 251.09 81.5269C252.07 82.7671 253.361 84.0409 254.106 84.9794C260.525 84.8118 265.277 82.3649 266.995 80.0101C266.349 77.0268 266.484 74.3955 264.992 71.496Z" fill="#4FE24C"/>
<path opacity="0.8" d="M264.992 71.496C263.458 68.5798 260.148 67.1133 256.176 67.4401C252.824 67.725 249.858 71.144 250.21 72.9876C250.562 74.8312 253.377 75.619 253.914 76.2558L251.592 77.9318C251.317 78.1303 251.085 78.3824 250.91 78.6729C250.735 78.9633 250.621 79.2862 250.574 79.6221C250.527 79.9579 250.548 80.2998 250.637 80.6272C250.726 80.9545 250.88 81.2605 251.09 81.5269C252.07 82.7671 253.361 84.0409 254.106 84.9794C260.525 84.8118 265.277 82.3649 266.995 80.0101C266.349 77.0268 266.484 74.3955 264.992 71.496Z" fill="white"/>
<path d="M261.841 73.3075C262.297 74.4762 262.396 75.7538 262.125 76.9787C261.855 78.2036 261.228 79.3209 260.323 80.1894C259.417 81.0579 258.275 81.6385 257.04 81.8579C255.805 82.0773 254.533 81.9257 253.384 81.4221C252.235 80.9185 251.261 80.0856 250.586 79.0287C249.91 77.9718 249.563 76.7384 249.588 75.4842C249.613 74.2301 250.01 73.0116 250.728 71.9828C251.445 70.954 252.452 70.161 253.62 69.7041C255.188 69.0933 256.935 69.1296 258.476 69.8052C260.017 70.4808 261.227 71.7404 261.841 73.3075V73.3075Z" fill="#263238"/>
<path d="M316.252 148.827C316.16 146.069 316.035 146.313 315.959 143.991C315.909 142.567 315.9 140.983 315.892 139.617C315.889 138.968 315.663 138.34 315.25 137.84C314.838 137.339 314.266 136.996 313.63 136.868C312.523 136.642 311.409 136.432 310.278 136.198C308.828 135.888 307.395 135.553 305.979 135.142C304.872 134.824 303.783 134.472 302.702 134.078C301.621 133.684 300.406 133.24 299.283 132.72C297.959 132.159 296.652 131.555 295.361 130.927C293.911 130.24 292.478 129.519 291.045 128.79C285.531 119.664 285.414 113.647 279.498 106.591L266.794 112.34C266.794 112.34 276.129 128.899 282.481 135.921C286.143 139.96 291.883 141.787 297.004 143.111C300.699 144.058 304.445 144.787 308.191 145.483C309.649 145.751 311.233 145.852 312.49 146.723C313.42 147.436 314.058 148.464 314.283 149.614C314.339 149.849 314.389 150.084 314.434 150.318C314.593 151.022 316.311 150.486 316.252 148.827Z" fill="#4FE24C"/>
<path opacity="0.8" d="M316.252 148.827C316.16 146.069 316.035 146.313 315.959 143.991C315.909 142.567 315.9 140.983 315.892 139.617C315.889 138.968 315.663 138.34 315.25 137.84C314.838 137.339 314.266 136.996 313.63 136.868C312.523 136.642 311.409 136.432 310.278 136.198C308.828 135.888 307.395 135.553 305.979 135.142C304.872 134.824 303.783 134.472 302.702 134.078C301.621 133.684 300.406 133.24 299.283 132.72C297.959 132.159 296.652 131.555 295.361 130.927C293.911 130.24 292.478 129.519 291.045 128.79C285.531 119.664 285.414 113.647 279.498 106.591L266.794 112.34C266.794 112.34 276.129 128.899 282.481 135.921C286.143 139.96 291.883 141.787 297.004 143.111C300.699 144.058 304.445 144.787 308.191 145.483C309.649 145.751 311.233 145.852 312.49 146.723C313.42 147.436 314.058 148.464 314.283 149.614C314.339 149.849 314.389 150.084 314.434 150.318C314.593 151.022 316.311 150.486 316.252 148.827Z" fill="white"/>
<path opacity="0.3" d="M309.808 136.088C309.305 135.979 308.802 135.87 308.291 135.745C308.333 138.644 306.975 143.638 306.481 145.155L308.073 145.457C309.117 142.438 309.701 139.28 309.808 136.088V136.088Z" fill="#4FE24C"/>
<path opacity="0.3" d="M315.925 139.618C315.923 138.971 315.697 138.344 315.287 137.843C314.876 137.342 314.306 136.999 313.671 136.869L312.833 136.71C312.968 137.663 313.455 138.53 314.199 139.14C314.677 139.583 315.251 139.909 315.875 140.096C315.925 139.945 315.925 139.777 315.925 139.618Z" fill="#4FE24C"/>
<path d="M260.659 73.358C260.995 74.6317 259.57 75.9641 258.439 74.8664C257.383 73.7343 256.227 72.6994 254.986 71.7741C253.821 71.0451 255.372 69.7713 257.207 70.2657C257.99 70.4625 258.713 70.8468 259.315 71.3855C259.916 71.9242 260.378 72.6012 260.659 73.358V73.358Z" fill="white"/>
<path d="M260.751 113.849C260.165 114.066 261.237 115.072 261.237 115.072C261.237 115.072 272.969 111.058 280.092 106.927C280.11 106.677 280.067 106.426 279.968 106.196C279.869 105.965 279.716 105.762 279.523 105.603C273.426 108.704 267.159 111.457 260.751 113.849V113.849Z" fill="#4FE24C"/>
<path opacity="0.5" d="M260.751 113.849C260.165 114.066 261.237 115.072 261.237 115.072C261.237 115.072 272.969 111.058 280.092 106.927C280.11 106.677 280.067 106.426 279.968 106.196C279.869 105.965 279.716 105.762 279.523 105.603C273.426 108.704 267.159 111.457 260.751 113.849V113.849Z" fill="white"/>
<path d="M269.383 79.2379C271.696 80.4111 273.866 81.6429 276.087 83.0089C277.168 83.696 278.241 84.3916 279.305 85.1458C280.369 85.9 281.425 86.6709 282.489 87.5425L282.883 87.8693L283.377 88.3218C283.672 88.5854 283.952 88.8652 284.215 89.1598C284.484 89.4531 284.71 89.738 284.928 89.9978C285.146 90.2576 285.38 90.5676 285.573 90.8358C286.354 91.9131 287.076 93.0321 287.735 94.1878C289.034 96.4289 290.155 98.7685 291.087 101.185C291.259 101.642 291.268 102.144 291.112 102.606C290.956 103.069 290.645 103.463 290.231 103.722C289.817 103.98 289.327 104.088 288.843 104.026C288.358 103.963 287.911 103.736 287.576 103.381L287.534 103.33C285.858 101.545 284.241 99.6683 282.615 97.9169C280.989 96.1655 279.338 94.3889 277.972 93.6096C276.07 92.428 273.95 91.2464 271.847 90.09L265.511 86.5704C264.529 86.0503 263.793 85.1613 263.467 84.0989C263.14 83.0366 263.248 81.8879 263.768 80.9055C264.288 79.9232 265.177 79.1876 266.24 78.8608C267.302 78.5339 268.451 78.6424 269.433 79.1625L269.383 79.2379Z" fill="#4FE24C"/>
<path opacity="0.8" d="M269.383 79.2379C271.696 80.4111 273.866 81.6429 276.087 83.0089C277.168 83.696 278.241 84.3916 279.305 85.1458C280.369 85.9 281.425 86.6709 282.489 87.5425L282.883 87.8693L283.377 88.3218C283.672 88.5854 283.952 88.8652 284.215 89.1598C284.484 89.4531 284.71 89.738 284.928 89.9978C285.146 90.2576 285.38 90.5676 285.573 90.8358C286.354 91.9131 287.076 93.0321 287.735 94.1878C289.034 96.4289 290.155 98.7685 291.087 101.185C291.259 101.642 291.268 102.144 291.112 102.606C290.956 103.069 290.645 103.463 290.231 103.722C289.817 103.98 289.327 104.088 288.843 104.026C288.358 103.963 287.911 103.736 287.576 103.381L287.534 103.33C285.858 101.545 284.241 99.6683 282.615 97.9169C280.989 96.1655 279.338 94.3889 277.972 93.6096C276.07 92.428 273.95 91.2464 271.847 90.09L265.511 86.5704C264.529 86.0503 263.793 85.1613 263.467 84.0989C263.14 83.0366 263.248 81.8879 263.768 80.9055C264.288 79.9232 265.177 79.1876 266.24 78.8608C267.302 78.5339 268.451 78.6424 269.433 79.1625L269.383 79.2379Z" fill="white"/>
<path d="M293.073 105.368L292.361 103.583C292.361 103.583 291.967 101.303 290.551 100.666L286.361 101.328L286.503 101.697C286.889 102.535 286.595 104.069 286.218 105.292C285.841 106.516 286.478 106.675 287.014 106.432C287.316 106.298 287.609 105.753 287.928 105.175C288.084 105.466 288.26 105.746 288.456 106.013L289.486 107.429C289.702 107.723 290.02 107.924 290.378 107.992C290.735 108.06 291.105 107.991 291.414 107.798L292.554 107.069C292.82 106.886 293.017 106.618 293.111 106.309C293.206 106 293.192 105.668 293.073 105.368V105.368Z" fill="#4FE24C"/>
<path opacity="0.8" d="M293.073 105.368L292.361 103.583C292.361 103.583 291.967 101.303 290.551 100.666L286.361 101.328L286.503 101.697C286.889 102.535 286.595 104.069 286.218 105.292C285.841 106.516 286.478 106.675 287.014 106.432C287.316 106.298 287.609 105.753 287.928 105.175C288.084 105.466 288.26 105.746 288.456 106.013L289.486 107.429C289.702 107.723 290.02 107.924 290.378 107.992C290.735 108.06 291.105 107.991 291.414 107.798L292.554 107.069C292.82 106.886 293.017 106.618 293.111 106.309C293.206 106 293.192 105.668 293.073 105.368V105.368Z" fill="white"/>
<path opacity="0.3" d="M265.847 88.8755L264.825 88.9593L258.548 104.11C258.891 104.135 259.236 104.107 259.57 104.027C259.57 104.027 267.749 100.976 270.221 99.8365C268.562 96.4091 265.847 88.8755 265.847 88.8755Z" fill="#4FE24C"/>
<path d="M254.392 92.8489C255.154 96.8095 256.57 100.616 258.582 104.112C261.649 103.056 266.76 101.061 269.241 99.9216C267.574 96.3475 266.094 92.6888 264.808 88.9606C262.185 89.1366 256.428 91.3405 254.392 92.8489Z" fill="white"/>
<path opacity="0.3" d="M260.618 96.1249C260.495 96.5347 260.254 96.899 259.924 97.1716C259.595 97.4442 259.192 97.613 258.766 97.6565C258.341 97.7 257.912 97.6163 257.534 97.4161C257.156 97.2158 256.846 96.9079 256.643 96.5314C256.44 96.1549 256.353 95.7266 256.394 95.3008C256.435 94.875 256.6 94.4708 256.871 94.1393C257.141 93.8079 257.504 93.564 257.913 93.4386C258.321 93.3132 258.758 93.312 259.168 93.4349C259.717 93.5997 260.178 93.9756 260.45 94.4799C260.721 94.9843 260.782 95.576 260.618 96.1249V96.1249Z" fill="#4FE24C"/>
<path opacity="0.6" d="M262.218 93.2424C262.186 93.3823 262.112 93.509 262.006 93.606C261.9 93.703 261.767 93.7656 261.625 93.7857C261.482 93.8059 261.337 93.7825 261.209 93.7188C261.08 93.655 260.974 93.5538 260.903 93.4285C260.833 93.3032 260.802 93.1595 260.815 93.0165C260.828 92.8734 260.884 92.7376 260.976 92.6269C261.067 92.5161 261.19 92.4356 261.328 92.3959C261.466 92.3562 261.613 92.3592 261.749 92.4044C261.919 92.4587 262.062 92.5754 262.149 92.731C262.236 92.8865 262.261 93.0693 262.218 93.2424Z" fill="#4FE24C"/>
<path opacity="0.6" d="M264.095 92.5129C264.076 92.6101 264.036 92.7022 263.979 92.7831C263.921 92.8641 263.848 92.9322 263.763 92.9831C263.677 93.034 263.583 93.0665 263.484 93.0786C263.386 93.0907 263.286 93.0822 263.191 93.0535C263.096 93.0247 263.008 92.9765 262.933 92.9119C262.858 92.8472 262.797 92.7676 262.754 92.678C262.711 92.5885 262.688 92.4911 262.685 92.3919C262.682 92.2928 262.7 92.1941 262.738 92.1023C262.765 92.0136 262.809 91.9311 262.867 91.8595C262.926 91.7879 262.998 91.7286 263.08 91.685C263.162 91.6414 263.252 91.6144 263.344 91.6054C263.436 91.5965 263.529 91.6059 263.618 91.633C263.797 91.6874 263.948 91.8102 264.037 91.9749C264.127 92.1396 264.147 92.3329 264.095 92.5129V92.5129Z" fill="#4FE24C"/>
<path opacity="0.5" d="M266.727 99.0425L258.975 102.101L258.514 100.576L266.258 97.5173L266.727 99.0425Z" fill="#4FE24C"/>
<path opacity="0.2" d="M223.963 215.507C223.945 220.387 223.474 225.254 222.556 230.047C221.567 234.354 220.03 237.505 217.947 239.499C216.976 240.463 215.823 241.224 214.556 241.737C213.288 242.251 211.931 242.507 210.564 242.491C206.256 242.491 202.969 240.142 200.7 235.443C200.302 234.599 199.963 233.729 199.686 232.837C194.896 236.951 190.436 241.434 186.346 246.245L181.896 251.491C184.29 253.918 187.054 255.952 190.083 257.516C195.301 260.215 202.15 261.567 210.631 261.572C212.122 261.572 213.564 261.53 214.963 261.446C220.094 253.855 224.339 245.701 227.617 237.144L240.061 204.697L223.963 215.507Z" fill="black"/>
<path d="M111.78 259.779L126.445 274.444L167.507 235.753C153.353 230.348 125.834 245.692 111.78 259.779Z" fill="#263238"/>
<path d="M162.924 310.897C158.239 306.204 148.259 296.232 148.259 296.232L186.949 255.17C192.321 269.291 176.977 296.836 162.924 310.897Z" fill="#263238"/>
<path d="M219.053 218.466L235.051 187.62L204.204 203.634C194.296 208.772 185.147 215.259 177.019 222.908L124.435 272.408L150.27 298.244L199.771 245.66C207.423 237.529 213.913 228.378 219.053 218.466V218.466Z" fill="#4FE24C"/>
<path opacity="0.6" d="M219.053 218.466L235.051 187.62L204.204 203.634C194.296 208.772 185.147 215.259 177.019 222.908L124.435 272.408L150.27 298.244L199.771 245.66C207.423 237.529 213.913 228.378 219.053 218.466V218.466Z" fill="white"/>
<path d="M186.203 247.277C192.174 247.277 197.013 242.437 197.013 236.467C197.013 230.497 192.174 225.657 186.203 225.657C180.233 225.657 175.393 230.497 175.393 236.467C175.393 242.437 180.233 247.277 186.203 247.277Z" fill="white"/>
<path d="M186.203 243.414C190.04 243.414 193.15 240.303 193.15 236.467C193.15 232.63 190.04 229.52 186.203 229.52C182.367 229.52 179.256 232.63 179.256 236.467C179.256 240.303 182.367 243.414 186.203 243.414Z" fill="#4FE24C"/>
<path opacity="0.3" d="M159.01 288.959L133.711 263.66L154.426 244.168L178.502 268.252L159.01 288.959Z" fill="#4FE24C"/>
<path d="M117.504 282.926C98.5653 284.459 92.2887 296.585 90.1434 312.7C89.054 320.921 88.568 329.242 81.6712 334.052C81.2563 334.334 80.944 334.743 80.7809 335.217C80.6178 335.692 80.6128 336.206 80.7666 336.684C80.9204 337.161 81.2248 337.576 81.6341 337.866C82.0434 338.156 82.5357 338.306 83.0372 338.292C108.462 337.496 120.32 325.052 121.811 319.856C121.42 322.572 120.72 325.235 119.725 327.792C119.542 328.244 119.506 328.741 119.622 329.214C119.739 329.687 120.001 330.111 120.373 330.426C120.744 330.74 121.206 330.93 121.691 330.967C122.177 331.004 122.662 330.888 123.077 330.633C130.208 326.167 139.158 317.937 139.753 304.588C134.507 297.155 117.504 282.926 117.504 282.926Z" fill="#4FE24C"/>
<path opacity="0.2" d="M117.504 282.926C98.5653 284.459 92.2887 296.585 90.1434 312.7C89.054 320.921 88.568 329.242 81.6712 334.052C81.2563 334.334 80.944 334.743 80.7809 335.217C80.6178 335.692 80.6128 336.206 80.7666 336.684C80.9204 337.161 81.2248 337.576 81.6341 337.866C82.0434 338.156 82.5357 338.306 83.0372 338.292C108.462 337.496 120.32 325.052 121.811 319.856C121.42 322.572 120.72 325.235 119.725 327.792C119.542 328.244 119.506 328.741 119.622 329.214C119.739 329.687 120.001 330.111 120.373 330.426C120.744 330.74 121.206 330.93 121.691 330.967C122.177 331.004 122.662 330.888 123.077 330.633C130.208 326.167 139.158 317.937 139.753 304.588C134.507 297.155 117.504 282.926 117.504 282.926Z" fill="white"/>
<path d="M142.694 310.31L112.359 279.975L128.516 276.48L146.189 294.154L142.694 310.31Z" fill="#4FE24C"/>
</svg>
