<svg width="16" height="16" viewBox="0 0 16 16" fill="none" xmlns="http://www.w3.org/2000/svg">
<path d="M13.875 8C13.875 8.09946 13.8355 8.19484 13.7652 8.26517C13.6948 8.33549 13.5995 8.375 13.5 8.375H8.375V13.5C8.375 13.5995 8.33549 13.6948 8.26517 13.7652C8.19484 13.8355 8.09946 13.875 8 13.875C7.90054 13.875 7.80516 13.8355 7.73484 13.7652C7.66451 13.6948 7.625 13.5995 7.625 13.5V8.375H2.5C2.40054 8.375 2.30516 8.33549 2.23483 8.26517C2.16451 8.19484 2.125 8.09946 2.125 8C2.125 7.90054 2.16451 7.80516 2.23483 7.73484C2.30516 7.66451 2.40054 7.625 2.5 7.625H7.625V2.5C7.625 2.40054 7.66451 2.30516 7.73484 2.23483C7.80516 2.16451 7.90054 2.125 8 2.125C8.09946 2.125 8.19484 2.16451 8.26517 2.23483C8.33549 2.30516 8.375 2.40054 8.375 2.5V7.625H13.5C13.5995 7.625 13.6948 7.66451 13.7652 7.73484C13.8355 7.80516 13.875 7.90054 13.875 8Z" fill="#4FE24C"/>
</svg>
