<svg width="24" height="24" viewBox="0 0 24 24" fill="none" xmlns="http://www.w3.org/2000/svg">
<path d="M12.0001 21.0001C11.8012 21.0001 11.6104 20.9211 11.4697 20.7804C11.3291 20.6398 11.2501 20.449 11.2501 20.2501L11.2501 5.56041L5.7807 11.0307C5.71101 11.1004 5.62829 11.1557 5.53724 11.1934C5.4462 11.2311 5.34862 11.2505 5.25007 11.2505C5.15153 11.2505 5.05394 11.2311 4.9629 11.1934C4.87185 11.1557 4.78913 11.1004 4.71945 11.0307C4.64976 10.961 4.59449 10.8783 4.55678 10.7873C4.51906 10.6962 4.49965 10.5986 4.49965 10.5001C4.49965 10.4016 4.51906 10.304 4.55678 10.2129C4.59449 10.1219 4.64976 10.0392 4.71945 9.96948L11.4694 3.21948C11.5391 3.14974 11.6218 3.09443 11.7129 3.05668C11.8039 3.01894 11.9015 2.99951 12.0001 2.99951C12.0986 2.99951 12.1962 3.01894 12.2873 3.05668C12.3783 3.09443 12.461 3.14974 12.5307 3.21948L19.2807 9.96948C19.4214 10.1102 19.5005 10.3011 19.5005 10.5001C19.5005 10.6991 19.4214 10.89 19.2807 11.0307C19.14 11.1715 18.9491 11.2505 18.7501 11.2505C18.551 11.2505 18.3602 11.1715 18.2194 11.0307L12.7501 5.56041V20.2501C12.7501 20.449 12.6711 20.6398 12.5304 20.7804C12.3897 20.9211 12.199 21.0001 12.0001 21.0001Z" fill="#4FE24C"/>
</svg>
