<svg width="16" height="16" viewBox="0 0 16 16" fill="none" xmlns="http://www.w3.org/2000/svg">
<path d="M13.5 4.625H3.5C3.33424 4.625 3.17527 4.55915 3.05806 4.44194C2.94085 4.32473 2.875 4.16576 2.875 4C2.875 3.83424 2.94085 3.67527 3.05806 3.55806C3.17527 3.44085 3.33424 3.375 3.5 3.375H12C12.0995 3.375 12.1948 3.33549 12.2652 3.26517C12.3355 3.19484 12.375 3.09946 12.375 3C12.375 2.90054 12.3355 2.80516 12.2652 2.73483C12.1948 2.66451 12.0995 2.625 12 2.625H3.5C3.13533 2.625 2.78559 2.76987 2.52773 3.02773C2.26987 3.28559 2.125 3.63533 2.125 4V12C2.125 12.3647 2.26987 12.7144 2.52773 12.9723C2.78559 13.2301 3.13533 13.375 3.5 13.375H13.5C13.7321 13.375 13.9546 13.2828 14.1187 13.1187C14.2828 12.9546 14.375 12.7321 14.375 12.5V5.5C14.375 5.26794 14.2828 5.04538 14.1187 4.88128C13.9546 4.71719 13.7321 4.625 13.5 4.625ZM13.625 12.5C13.625 12.5332 13.6118 12.5649 13.5884 12.5884C13.5649 12.6118 13.5332 12.625 13.5 12.625H3.5C3.33424 12.625 3.17527 12.5592 3.05806 12.4419C2.94085 12.3247 2.875 12.1658 2.875 12V5.22437C3.06837 5.32363 3.28265 5.37527 3.5 5.375H13.5C13.5332 5.375 13.5649 5.38817 13.5884 5.41161C13.6118 5.43505 13.625 5.46685 13.625 5.5V12.5ZM11.875 8.75C11.875 8.87361 11.8383 8.99445 11.7697 9.09723C11.701 9.20001 11.6034 9.28012 11.4892 9.32743C11.375 9.37473 11.2493 9.38711 11.1281 9.36299C11.0068 9.33887 10.8955 9.27935 10.8081 9.19194C10.7206 9.10453 10.6611 8.99317 10.637 8.87193C10.6129 8.75069 10.6253 8.62503 10.6726 8.51082C10.7199 8.39662 10.8 8.29901 10.9028 8.23033C11.0055 8.16166 11.1264 8.125 11.25 8.125C11.4158 8.125 11.5747 8.19085 11.6919 8.30806C11.8092 8.42527 11.875 8.58424 11.875 8.75Z" fill="#FCFCFC"/>
</svg>
